<svg width="3804" height="775" xmlns="http://www.w3.org/2000/svg" xmlns:xlink="http://www.w3.org/1999/xlink" xml:space="preserve" overflow="hidden"><defs><linearGradient x1="759.284" y1="1263.88" x2="2825.22" y2="1263.88" gradientUnits="userSpaceOnUse" spreadMethod="reflect" id="fill0"><stop offset="0" stop-color="#73C69D" stop-opacity="1"/><stop offset="0.27" stop-color="#73C69D" stop-opacity="1"/><stop offset="0.77" stop-color="#2C6A4F" stop-opacity="1"/><stop offset="1" stop-color="#2C6A4F" stop-opacity="1"/></linearGradient></defs><g transform="translate(-330 -930)"><g><text fill="#2C6A4F" fill-opacity="1" font-family="Outfit,Outfit_MSFontService,sans-serif" font-style="normal" font-variant="normal" font-weight="700" font-stretch="normal" font-size="367" text-anchor="start" direction="ltr" writing-mode="lr-tb" unicode-bidi="normal" text-decoration="none" transform="matrix(1 0 0 1 2850.4 1393)">Green</text><g><g><g><path d="M427.375 1368.92C414.406 1355.95 404.247 1340.96 396.899 1323.96 389.55 1306.96 385.875 1289.38 385.875 1271.22 385.875 1253.06 389.333 1235.12 396.25 1217.4 403.167 1199.67 414.406 1183.03 429.969 1167.47 440.056 1157.38 452.52 1148.74 467.362 1141.53 482.204 1134.33 499.784 1128.63 520.102 1124.46 540.419 1120.28 563.619 1117.76 589.701 1116.89 615.782 1116.03 644.962 1117.03 677.24 1119.92 679.545 1150.47 680.266 1178.56 679.401 1204.21 678.536 1229.86 676.159 1252.99 672.268 1273.6 668.378 1294.2 662.902 1312.21 655.841 1327.63 648.781 1343.05 640.063 1355.95 629.688 1366.32 614.413 1381.6 598.202 1392.77 581.055 1399.83 563.907 1406.89 546.399 1410.42 528.531 1410.42 509.799 1410.42 491.498 1406.74 473.63 1399.39 455.762 1392.04 440.344 1381.89 427.375 1368.92ZM475.792 1362C484.149 1366.9 492.723 1370.43 501.513 1372.59 510.303 1374.75 519.309 1375.83 528.531 1375.83 541.788 1375.83 554.901 1373.17 567.87 1367.84 580.839 1362.5 593.231 1353.93 605.047 1342.11 610.234 1336.93 615.494 1329.65 620.826 1320.28 626.157 1310.92 630.768 1298.67 634.659 1283.54 638.55 1268.41 641.503 1250.11 643.521 1228.64 645.538 1207.17 645.826 1181.59 644.385 1151.91 630.264 1151.33 614.341 1151.11 596.617 1151.26 578.893 1151.4 561.242 1152.77 543.662 1155.36 526.082 1157.96 509.367 1162.14 493.516 1167.9 477.665 1173.66 464.696 1181.59 454.609 1191.68 441.641 1204.65 432.707 1217.47 427.807 1230.15 422.908 1242.83 420.458 1255.08 420.458 1266.9 420.458 1283.9 423.701 1298.81 430.185 1311.64 436.669 1324.46 442.361 1333.47 447.26 1338.66 459.365 1315.6 475.359 1293.48 495.245 1272.3 515.13 1251.12 538.33 1233.75 564.844 1220.21 544.094 1238.36 526.01 1258.9 510.591 1281.81 495.173 1304.72 483.573 1331.45 475.792 1362Z" fill="#2C6A4F" fill-rule="nonzero" fill-opacity="1"/></g></g></g><path d="M2029.24 1246.08C2018.23 1246.08 2008.5 1248.65 2000.06 1253.79 1991.62 1258.93 1985.01 1265.96 1980.24 1274.89 1975.47 1283.82 1973.08 1294.04 1973.08 1305.54 1973.08 1317.28 1975.47 1327.62 1980.24 1336.55 1985.01 1345.48 1991.68 1352.51 2000.24 1357.65 2008.81 1362.79 2018.59 1365.36 2029.6 1365.36 2046 1365.36 2059.21 1359.79 2069.24 1348.66 2079.27 1337.53 2084.29 1323.27 2084.29 1305.9 2084.29 1293.91 2082.02 1283.45 2077.5 1274.52 2072.97 1265.59 2066.55 1258.62 2058.23 1253.6 2049.91 1248.59 2040.25 1246.08 2029.24 1246.08ZM1823.45 1246.08C1812.44 1246.08 1802.78 1248.59 1794.46 1253.6 1786.14 1258.62 1779.66 1265.65 1775.01 1274.71 1770.36 1283.76 1768.03 1294.16 1768.03 1305.9 1768.03 1317.4 1770.3 1327.62 1774.82 1336.55 1779.35 1345.48 1785.83 1352.51 1794.27 1357.65 1802.72 1362.79 1812.32 1365.36 1823.08 1365.36 1834.09 1365.36 1843.76 1362.79 1852.08 1357.65 1860.4 1352.51 1867 1345.48 1871.89 1336.55 1876.79 1327.62 1879.23 1317.28 1879.23 1305.54 1879.23 1294.04 1876.79 1283.76 1871.89 1274.71 1867 1265.65 1860.4 1258.62 1852.08 1253.6 1843.76 1248.59 1834.22 1246.08 1823.45 1246.08ZM1245.49 1246.08C1234.48 1246.08 1224.75 1248.65 1216.31 1253.79 1207.87 1258.93 1201.26 1265.96 1196.49 1274.89 1191.72 1283.82 1189.33 1294.04 1189.33 1305.54 1189.33 1317.28 1191.72 1327.62 1196.49 1336.55 1201.26 1345.48 1207.93 1352.51 1216.49 1357.65 1225.06 1362.79 1234.84 1365.36 1245.85 1365.36 1262.25 1365.36 1275.46 1359.79 1285.49 1348.66 1295.52 1337.53 1300.54 1323.27 1300.54 1305.9 1300.54 1293.91 1298.27 1283.45 1293.75 1274.52 1289.22 1265.59 1282.8 1258.62 1274.48 1253.6 1266.16 1248.59 1256.5 1246.08 1245.49 1246.08ZM2394.43 1245.35C2383.18 1245.35 2373.27 1247.79 2364.71 1252.69 2356.14 1257.58 2349.54 1264.43 2344.89 1273.24 2342.57 1277.64 2340.82 1282.44 2339.66 1287.64L2339.2 1290.49 2445.1 1290.49 2444.25 1284.85C2443.21 1279.86 2441.66 1275.32 2439.58 1271.22 2435.42 1263.02 2429.54 1256.66 2421.96 1252.14 2414.37 1247.61 2405.2 1245.35 2394.43 1245.35ZM2601.22 1214.89C2614.68 1214.89 2626.48 1218.19 2636.64 1224.8 2646.79 1231.4 2654.8 1240.03 2660.68 1250.67 2666.55 1261.31 2669.48 1272.63 2669.48 1284.62L2669.12 1392.88 2636.45 1392.88 2636.45 1291.22C2636.45 1278.01 2632.29 1267.12 2623.97 1258.56 2615.66 1250 2604.89 1245.71 2591.68 1245.71 2582.63 1245.71 2574.74 1247.67 2568.01 1251.59 2561.28 1255.5 2555.96 1260.88 2552.04 1267.73 2548.13 1274.58 2546.17 1282.41 2546.17 1291.22L2546.17 1392.88 2513.14 1392.88 2513.14 1218.56 2546.17 1218.56 2546.17 1241.06 2546.23 1240.98C2551.48 1234.07 2558.01 1228.37 2565.81 1223.88 2576.2 1217.88 2588.01 1214.89 2601.22 1214.89ZM2395.17 1214.89C2411.32 1214.89 2425.57 1218.56 2437.92 1225.9 2450.28 1233.24 2459.94 1243.39 2466.92 1256.36 2473.89 1269.32 2477.38 1284 2477.38 1300.4 2477.38 1302.84 2477.25 1305.47 2477.01 1308.29 2476.76 1311.1 2476.28 1314.34 2475.54 1318.01L2339.15 1318.01 2339.75 1321.64C2340.97 1326.99 2342.81 1331.96 2345.26 1336.55 2350.15 1345.72 2357.12 1352.82 2366.18 1357.83 2375.23 1362.85 2385.63 1365.36 2397.37 1365.36 2407.16 1365.36 2416.15 1363.64 2424.35 1360.22 2432.54 1356.79 2439.58 1351.65 2445.45 1344.8L2466.73 1366.46C2458.41 1376.24 2448.2 1383.71 2436.09 1388.84 2423.98 1393.98 2411.07 1396.55 2397.37 1396.55 2380 1396.55 2364.34 1392.58 2350.39 1384.62 2336.45 1376.67 2325.44 1365.85 2317.36 1352.14 2309.29 1338.44 2305.25 1322.91 2305.25 1305.54 2305.25 1288.41 2309.23 1272.99 2317.18 1259.29 2325.13 1245.59 2335.9 1234.77 2349.48 1226.81 2363.06 1218.86 2378.29 1214.89 2395.17 1214.89ZM2243.46 1214.89C2252.27 1214.89 2260.22 1216.42 2267.32 1219.47 2274.41 1222.53 2281.02 1227.61 2287.14 1234.7L2265.48 1257.09C2261.81 1253.18 2257.77 1250.36 2253.37 1248.65 2248.97 1246.94 2243.83 1246.08 2237.96 1246.08 2225.72 1246.08 2215.69 1250 2207.86 1257.83 2200.03 1265.65 2196.12 1277.52 2196.12 1293.42L2196.12 1392.88 2163.09 1392.88 2163.09 1218.56 2196.12 1218.56 2196.12 1238.9 2199.05 1234.7C2209.33 1221.49 2224.13 1214.89 2243.46 1214.89ZM2024.1 1214.89C2037.31 1214.89 2049.11 1217.64 2059.51 1223.14 2067.31 1227.27 2073.98 1232.57 2079.5 1239.04L2082.08 1242.26 2082.08 1218.56 2115.48 1218.56 2115.48 1392.88 2082.08 1392.88 2082.08 1369.33 2079.77 1372.29C2074.31 1378.83 2067.68 1384.17 2059.88 1388.29 2049.48 1393.8 2037.55 1396.55 2024.1 1396.55 2008.19 1396.55 1993.76 1392.58 1980.79 1384.62 1967.82 1376.67 1957.61 1365.85 1950.15 1352.14 1942.68 1338.44 1938.95 1323.03 1938.95 1305.9 1938.95 1288.78 1942.68 1273.36 1950.15 1259.66 1957.61 1245.96 1967.76 1235.07 1980.61 1227 1993.45 1218.92 2007.95 1214.89 2024.1 1214.89ZM1828.59 1214.89C1844.49 1214.89 1858.87 1218.92 1871.71 1227 1884.56 1235.07 1894.65 1245.96 1901.99 1259.66 1909.33 1273.36 1913 1288.78 1913 1305.9 1913 1323.03 1909.33 1338.44 1901.99 1352.14 1894.65 1365.85 1884.56 1376.67 1871.71 1384.62 1858.87 1392.58 1844.49 1396.55 1828.59 1396.55 1815.38 1396.55 1803.45 1393.8 1792.81 1388.29 1784.82 1384.17 1778.05 1378.83 1772.47 1372.29L1769.87 1369.03 1769.87 1465.91 1736.84 1465.91 1736.84 1218.56 1769.87 1218.56 1769.87 1242.57 1770.01 1242.37C1776.14 1234.37 1783.86 1227.96 1793.17 1223.14 1803.82 1217.64 1815.62 1214.89 1828.59 1214.89ZM1637.32 1214.89C1651.02 1214.89 1663.19 1217.27 1673.83 1222.04 1684.48 1226.81 1693.22 1233.97 1700.07 1243.51L1678.79 1264.8C1673.9 1258.44 1667.84 1253.54 1660.62 1250.12 1653.4 1246.69 1645.27 1244.98 1636.22 1244.98 1626.67 1244.98 1619.4 1246.63 1614.38 1249.93 1609.36 1253.24 1606.86 1257.83 1606.86 1263.7 1606.86 1269.57 1609.06 1274.1 1613.46 1277.28 1617.87 1280.46 1623.68 1283.15 1630.9 1285.35 1638.11 1287.55 1645.64 1289.82 1653.47 1292.14 1661.3 1294.46 1668.76 1297.58 1675.85 1301.5 1682.95 1305.41 1688.76 1310.67 1693.29 1317.28 1697.81 1323.89 1700.07 1332.57 1700.07 1343.34 1700.07 1359.73 1694.26 1372.7 1682.64 1382.24 1671.02 1391.78 1655.42 1396.55 1635.85 1396.55 1626.06 1396.55 1616.83 1395.27 1608.14 1392.7 1599.46 1390.13 1591.44 1386.46 1584.1 1381.69 1576.76 1376.92 1570.4 1371.23 1565.02 1364.62L1586.3 1343.34C1592.67 1351.17 1600.01 1356.98 1608.32 1360.77 1616.64 1364.56 1625.94 1366.46 1636.22 1366.46 1646.49 1366.46 1654.44 1364.68 1660.07 1361.14 1665.7 1357.59 1668.51 1352.63 1668.51 1346.27 1668.51 1339.91 1666.25 1334.96 1661.72 1331.41 1657.2 1327.86 1651.39 1324.93 1644.29 1322.6 1637.2 1320.28 1629.67 1317.95 1621.72 1315.63 1613.77 1313.3 1606.24 1310.31 1599.15 1306.64 1592.05 1302.97 1586.24 1297.95 1581.72 1291.59 1577.19 1285.23 1574.93 1276.79 1574.93 1266.27 1574.93 1255.75 1577.5 1246.63 1582.63 1238.92 1587.77 1231.22 1594.93 1225.28 1604.1 1221.13 1613.28 1216.97 1624.35 1214.89 1637.32 1214.89ZM1467.42 1214.89C1480.88 1214.89 1492.68 1218.19 1502.83 1224.8 1512.99 1231.4 1521 1240.03 1526.87 1250.67 1532.74 1261.31 1535.68 1272.63 1535.68 1284.62L1535.31 1392.88 1502.65 1392.88 1502.65 1291.22C1502.65 1278.01 1498.49 1267.12 1490.17 1258.56 1481.85 1250 1471.09 1245.71 1457.88 1245.71 1448.82 1245.71 1440.93 1247.67 1434.21 1251.59 1427.48 1255.5 1422.16 1260.88 1418.24 1267.73 1414.33 1274.58 1412.37 1282.41 1412.37 1291.22L1412.37 1392.88 1379.34 1392.88 1379.34 1218.56 1412.37 1218.56 1412.37 1241.06 1412.43 1240.98C1417.68 1234.07 1424.2 1228.37 1432 1223.88 1442.4 1217.88 1454.21 1214.89 1467.42 1214.89ZM1240.35 1214.89C1253.56 1214.89 1265.37 1217.64 1275.76 1223.14 1283.56 1227.27 1290.23 1232.57 1295.75 1239.04L1298.33 1242.26 1298.33 1218.56 1331.73 1218.56 1331.73 1392.88 1298.33 1392.88 1298.33 1369.33 1296.02 1372.29C1290.56 1378.83 1283.93 1384.17 1276.13 1388.29 1265.73 1393.8 1253.8 1396.55 1240.35 1396.55 1224.44 1396.55 1210.01 1392.58 1197.04 1384.62 1184.07 1376.67 1173.86 1365.85 1166.4 1352.14 1158.94 1338.44 1155.2 1323.03 1155.2 1305.9 1155.2 1288.78 1158.94 1273.36 1166.4 1259.66 1173.86 1245.96 1184.01 1235.07 1196.86 1227 1209.7 1218.92 1224.2 1214.89 1240.35 1214.89ZM1093.05 1214.89C1101.85 1214.89 1109.8 1216.42 1116.9 1219.47 1124 1222.53 1130.6 1227.61 1136.72 1234.7L1115.07 1257.09C1111.4 1253.18 1107.36 1250.36 1102.95 1248.65 1098.55 1246.94 1093.41 1246.08 1087.54 1246.08 1075.31 1246.08 1065.28 1250 1057.45 1257.83 1049.62 1265.65 1045.7 1277.52 1045.7 1293.42L1045.7 1392.88 1012.67 1392.88 1012.67 1218.56 1045.7 1218.56 1045.7 1238.9 1048.64 1234.7C1058.91 1221.49 1073.72 1214.89 1093.05 1214.89ZM2741.03 1145.52 2774.06 1145.52 2774.06 1218.56 2816.63 1218.56 2816.99 1248.65 2774.06 1248.52 2774.06 1392.88 2741.03 1392.88 2741.03 1248.42 2698.09 1248.28 2698.09 1218.56 2741.03 1218.56ZM770.294 1138.18 977.649 1138.18 977.649 1169.75 891.073 1169.75 891.404 1392.88 856.906 1392.88 856.906 1169.75 770.661 1169.75Z" fill="url(#fill0)" fill-rule="evenodd"/><text fill="#000000" fill-opacity="0" font-family="Arial,Arial_MSFontService,sans-serif" font-size="327.731" direction="ltr" writing-mode="lr-tb" x="770.294" y="1424.95">Transparent</text></g></g></svg>