<svg width="1527" height="1526" xmlns="http://www.w3.org/2000/svg" xmlns:xlink="http://www.w3.org/1999/xlink" xml:space="preserve" overflow="hidden"><defs><linearGradient x1="574" y1="1582" x2="2096" y2="1582" gradientUnits="userSpaceOnUse" spreadMethod="reflect" id="fill0"><stop offset="0" stop-color="#73C69D" stop-opacity="1"/><stop offset="0.27" stop-color="#73C69D" stop-opacity="1"/><stop offset="0.77" stop-color="#2C6A4F" stop-opacity="1"/><stop offset="1" stop-color="#2C6A4F" stop-opacity="1"/></linearGradient></defs><g transform="translate(-572 -820)"><g><path d="M788.928 2128.03C721.763 2060.85 669.15 1983.23 631.09 1895.15 593.03 1807.07 574 1716.01 574 1621.96 574 1527.91 591.911 1434.98 627.732 1343.18 663.553 1251.37 721.763 1165.16 802.361 1084.54 854.6 1032.29 919.154 987.509 996.02 950.187 1072.89 912.866 1163.93 883.384 1269.16 861.737 1374.38 840.09 1494.53 827.029 1629.61 822.55 1764.69 818.072 1915.81 823.296 2082.97 838.225 2094.91 996.466 2098.65 1142.02 2094.17 1274.88 2089.69 1407.74 2077.38 1527.54 2057.23 1634.28 2037.08 1741.02 2008.72 1834.32 1972.15 1914.18 1935.59 1994.05 1890.43 2060.85 1836.7 2114.6 1757.6 2193.72 1673.64 2251.56 1584.83 2288.14 1496.03 2324.71 1405.35 2343 1312.82 2343 1215.8 2343 1121.02 2323.97 1028.48 2285.9 935.946 2247.83 856.093 2195.21 788.928 2128.03ZM1039.68 2092.2C1082.96 2117.58 1127.37 2135.87 1172.89 2147.07 1218.41 2158.26 1265.05 2163.86 1312.82 2163.86 1381.47 2163.86 1449.38 2150.05 1516.55 2122.43 1583.71 2094.82 1647.89 2050.4 1709.09 1989.2 1735.95 1962.33 1763.19 1924.63 1790.81 1876.12 1818.42 1827.6 1842.3 1764.15 1862.45 1685.78 1882.6 1607.41 1897.9 1512.61 1908.35 1401.4 1918.79 1290.18 1920.28 1157.69 1912.82 1003.93 1839.69 1000.94 1757.22 999.825 1665.43 1000.57 1573.64 1001.32 1482.22 1008.41 1391.17 1021.84 1300.13 1035.28 1213.56 1056.93 1131.47 1086.78 1049.38 1116.64 982.213 1157.69 929.975 1209.94 862.81 1277.12 816.54 1343.55 791.167 1409.23 765.794 1474.92 753.107 1538.36 753.107 1599.57 753.107 1687.65 769.898 1764.9 803.481 1831.33 837.063 1897.76 866.542 1944.41 891.914 1971.28 954.602 1851.86 1037.44 1737.28 1140.43 1627.56 1243.41 1517.84 1363.56 1427.89 1500.88 1357.73 1393.41 1451.78 1299.76 1558.14 1219.9 1676.82 1140.05 1795.5 1079.98 1933.96 1039.68 2092.2Z" fill="url(#fill0)" fill-rule="evenodd"/></g></g></svg>