<svg width="3772" height="775" xmlns="http://www.w3.org/2000/svg" xmlns:xlink="http://www.w3.org/1999/xlink" xml:space="preserve" overflow="hidden"><defs><linearGradient x1="755.846" y1="1263.88" x2="2828.66" y2="1263.88" gradientUnits="userSpaceOnUse" spreadMethod="reflect" id="fill0"><stop offset="0" stop-color="#73C69D" stop-opacity="1"/><stop offset="0.27" stop-color="#73C69D" stop-opacity="1"/><stop offset="0.77" stop-color="#2C6A4F" stop-opacity="1"/><stop offset="1" stop-color="#2C6A4F" stop-opacity="1"/></linearGradient></defs><g transform="translate(-330 -930)"><g><text fill="#2C6A4F" fill-opacity="1" font-family="Outfit Medium,Outfit Medium_MSFontService,sans-serif" font-style="normal" font-variant="normal" font-weight="500" font-stretch="normal" font-size="367" text-anchor="start" direction="ltr" writing-mode="lr-tb" unicode-bidi="normal" text-decoration="none" transform="matrix(1 0 0 1 2848.84 1393)">Green</text><g><g><g><path d="M427.375 1368.92C414.406 1355.95 404.247 1340.96 396.899 1323.96 389.55 1306.96 385.875 1289.38 385.875 1271.22 385.875 1253.06 389.333 1235.12 396.25 1217.4 403.167 1199.67 414.406 1183.03 429.969 1167.47 440.056 1157.38 452.52 1148.74 467.362 1141.53 482.204 1134.33 499.784 1128.63 520.102 1124.46 540.419 1120.28 563.619 1117.76 589.701 1116.89 615.782 1116.03 644.962 1117.03 677.24 1119.92 679.545 1150.47 680.266 1178.56 679.401 1204.21 678.536 1229.86 676.159 1252.99 672.268 1273.6 668.378 1294.2 662.902 1312.21 655.841 1327.63 648.781 1343.05 640.063 1355.95 629.688 1366.32 614.413 1381.6 598.202 1392.77 581.055 1399.83 563.907 1406.89 546.399 1410.42 528.531 1410.42 509.799 1410.42 491.498 1406.74 473.63 1399.39 455.762 1392.04 440.344 1381.89 427.375 1368.92ZM475.792 1362C484.149 1366.9 492.723 1370.43 501.513 1372.59 510.303 1374.75 519.309 1375.83 528.531 1375.83 541.788 1375.83 554.901 1373.17 567.87 1367.84 580.839 1362.5 593.231 1353.93 605.047 1342.11 610.234 1336.93 615.494 1329.65 620.826 1320.28 626.157 1310.92 630.768 1298.67 634.659 1283.54 638.55 1268.41 641.503 1250.11 643.521 1228.64 645.538 1207.17 645.826 1181.59 644.385 1151.91 630.264 1151.33 614.341 1151.11 596.617 1151.26 578.893 1151.4 561.242 1152.77 543.662 1155.36 526.082 1157.96 509.367 1162.14 493.516 1167.9 477.665 1173.66 464.696 1181.59 454.609 1191.68 441.641 1204.65 432.707 1217.47 427.807 1230.15 422.908 1242.83 420.458 1255.08 420.458 1266.9 420.458 1283.9 423.701 1298.81 430.185 1311.64 436.669 1324.46 442.361 1333.47 447.26 1338.66 459.365 1315.6 475.359 1293.48 495.245 1272.3 515.13 1251.12 538.33 1233.75 564.844 1220.21 544.094 1238.36 526.01 1258.9 510.591 1281.81 495.173 1304.72 483.573 1331.45 475.792 1362Z" fill="#2C6A4F" fill-rule="nonzero" fill-opacity="1"/></g></g></g><path d="M2026.21 1251.22C2016.42 1251.22 2007.8 1253.48 2000.34 1258.01 1992.87 1262.54 1987 1268.84 1982.72 1276.91 1978.44 1284.98 1976.3 1294.28 1976.3 1304.8 1976.3 1315.32 1978.44 1324.62 1982.72 1332.69 1987 1340.77 1992.87 1347.07 2000.34 1351.59 2007.8 1356.12 2016.42 1358.38 2026.21 1358.38 2041.14 1358.38 2053.18 1353.37 2062.36 1343.34 2071.53 1333.3 2076.12 1320.46 2076.12 1304.8 2076.12 1294.28 2074.04 1284.98 2069.88 1276.91 2065.72 1268.84 2059.91 1262.54 2052.45 1258.01 2044.99 1253.48 2036.24 1251.22 2026.21 1251.22ZM1821 1251.22C1811.21 1251.22 1802.53 1253.48 1794.94 1258.01 1787.36 1262.54 1781.48 1268.84 1777.33 1276.91 1773.17 1284.98 1771.09 1294.28 1771.09 1304.8 1771.09 1315.32 1773.17 1324.62 1777.33 1332.69 1781.48 1340.77 1787.36 1347.07 1794.94 1351.59 1802.53 1356.12 1811.21 1358.38 1821 1358.38 1830.78 1358.38 1839.41 1356.12 1846.87 1351.59 1854.33 1347.07 1860.21 1340.77 1864.49 1332.69 1868.77 1324.62 1870.91 1315.32 1870.91 1304.8 1870.91 1294.28 1868.77 1284.98 1864.49 1276.91 1860.21 1268.84 1854.33 1262.54 1846.87 1258.01 1839.41 1253.48 1830.78 1251.22 1821 1251.22ZM1241.31 1251.22C1231.53 1251.22 1222.9 1253.48 1215.44 1258.01 1207.98 1262.54 1202.11 1268.84 1197.82 1276.91 1193.54 1284.98 1191.4 1294.28 1191.4 1304.8 1191.4 1315.32 1193.54 1324.62 1197.82 1332.69 1202.11 1340.77 1207.98 1347.07 1215.44 1351.59 1222.9 1356.12 1231.53 1358.38 1241.31 1358.38 1256.24 1358.38 1268.29 1353.37 1277.46 1343.34 1286.64 1333.3 1291.23 1320.46 1291.23 1304.8 1291.23 1294.28 1289.15 1284.98 1284.99 1276.91 1280.83 1268.84 1275.02 1262.54 1267.56 1258.01 1260.09 1253.48 1251.35 1251.22 1241.31 1251.22ZM2393.13 1250.12C2382.85 1250.12 2373.92 1252.32 2366.34 1256.72 2358.75 1261.13 2352.88 1267.31 2348.72 1275.26 2347.68 1277.25 2346.77 1279.33 2345.99 1281.51L2344.47 1286.82 2438.1 1286.82 2437.81 1285.17C2436.77 1280.64 2435.33 1276.54 2433.5 1272.87 2429.83 1265.53 2424.63 1259.9 2417.9 1255.99 2411.17 1252.08 2402.91 1250.12 2393.13 1250.12ZM2603.01 1213.05C2616.22 1213.05 2627.97 1216.42 2638.24 1223.14 2648.52 1229.87 2656.59 1238.56 2662.47 1249.2 2668.34 1259.84 2671.27 1270.91 2671.27 1282.41L2671.27 1392.88 2630.9 1392.88 2630.9 1291.22C2630.9 1279.48 2627.17 1269.81 2619.71 1262.23 2612.25 1254.64 2602.64 1250.85 2590.9 1250.85 2582.83 1250.85 2575.79 1252.56 2569.8 1255.99 2563.8 1259.42 2559.09 1264.19 2555.67 1270.3 2552.24 1276.42 2550.53 1283.39 2550.53 1291.22L2550.53 1392.88 2510.16 1392.88 2510.16 1216.72 2550.53 1216.72 2550.53 1236.56 2551.09 1235.86C2555.79 1230.4 2561.36 1225.79 2567.78 1222.04 2578.06 1216.05 2589.8 1213.05 2603.01 1213.05ZM2393.86 1213.05C2410.25 1213.05 2424.75 1216.84 2437.35 1224.43 2449.95 1232.01 2459.86 1242.41 2467.08 1255.62 2474.3 1268.84 2477.9 1283.88 2477.9 1300.76 2477.9 1303.7 2477.72 1306.7 2477.35 1309.76 2476.99 1312.81 2476.44 1316.18 2475.7 1319.85L2344.32 1319.85 2346.2 1326.2C2347.02 1328.45 2347.99 1330.61 2349.09 1332.69 2353.49 1341.01 2359.73 1347.43 2367.8 1351.96 2375.88 1356.49 2385.18 1358.75 2395.7 1358.75 2404.75 1358.75 2413.13 1357.16 2420.84 1353.98 2428.54 1350.8 2435.09 1346.15 2440.47 1340.03L2466.16 1366.09C2457.6 1376.12 2447.2 1383.71 2434.97 1388.84 2422.73 1393.98 2409.77 1396.55 2396.06 1396.55 2378.45 1396.55 2362.61 1392.58 2348.54 1384.62 2334.47 1376.67 2323.34 1365.72 2315.14 1351.78 2306.94 1337.83 2302.85 1322.17 2302.85 1304.8 2302.85 1287.43 2306.88 1271.83 2314.96 1258.01 2323.03 1244.19 2333.98 1233.24 2347.8 1225.16 2361.63 1217.09 2376.98 1213.05 2393.86 1213.05ZM2244.63 1213.05C2253.44 1213.05 2261.39 1214.64 2268.49 1217.82 2275.58 1221 2282.19 1226.14 2288.31 1233.24L2261.88 1260.39C2258.7 1256.97 2255.16 1254.52 2251.24 1253.05 2247.33 1251.59 2242.8 1250.85 2237.66 1250.85 2226.41 1250.85 2217.11 1254.4 2209.77 1261.5 2202.43 1268.59 2198.76 1279.72 2198.76 1294.89L2198.76 1392.88 2158.39 1392.88 2158.39 1216.72 2198.76 1216.72 2198.76 1235.2 2199.68 1233.79C2209.59 1219.96 2224.57 1213.05 2244.63 1213.05ZM2019.6 1213.05C2033.06 1213.05 2044.99 1215.93 2055.39 1221.68 2061.89 1225.27 2067.55 1229.7 2072.38 1234.97L2073.55 1236.34 2073.55 1216.72 2113.92 1216.72 2113.92 1392.88 2073.55 1392.88 2073.55 1373.57 2072.64 1374.64C2067.84 1379.9 2062.15 1384.33 2055.57 1387.93 2045.05 1393.68 2033.06 1396.55 2019.6 1396.55 2003.7 1396.55 1989.33 1392.51 1976.48 1384.44 1963.64 1376.37 1953.48 1365.42 1946.02 1351.59 1938.56 1337.77 1934.83 1322.29 1934.83 1305.17 1934.83 1287.8 1938.56 1272.2 1946.02 1258.38 1953.48 1244.55 1963.64 1233.54 1976.48 1225.35 1989.33 1217.15 2003.7 1213.05 2019.6 1213.05ZM1827.6 1213.05C1843.51 1213.05 1857.88 1217.15 1870.73 1225.35 1883.57 1233.54 1893.73 1244.55 1901.19 1258.38 1908.65 1272.2 1912.38 1287.8 1912.38 1305.17 1912.38 1322.29 1908.65 1337.77 1901.19 1351.59 1893.73 1365.42 1883.57 1376.37 1870.73 1384.44 1857.88 1392.51 1843.51 1396.55 1827.6 1396.55 1814.15 1396.55 1802.16 1393.68 1791.64 1387.93 1785.06 1384.33 1779.37 1379.9 1774.56 1374.64L1773.66 1373.57 1773.66 1466.28 1733.29 1466.28 1733.29 1216.72 1773.66 1216.72 1773.66 1236.36 1774.86 1234.97C1779.71 1229.7 1785.43 1225.27 1792.01 1221.68 1802.53 1215.93 1814.39 1213.05 1827.6 1213.05ZM1635.19 1213.05C1649.38 1213.05 1661.92 1215.56 1672.8 1220.57 1683.69 1225.59 1692.81 1233.11 1700.15 1243.15L1674.46 1268.84C1669.32 1262.47 1663.45 1257.7 1656.84 1254.52 1650.23 1251.34 1642.65 1249.75 1634.09 1249.75 1626.01 1249.75 1619.77 1250.97 1615.37 1253.42 1610.97 1255.87 1608.76 1259.42 1608.76 1264.06 1608.76 1268.96 1610.97 1272.75 1615.37 1275.44 1619.77 1278.13 1625.46 1280.46 1632.43 1282.41 1639.41 1284.37 1646.75 1286.51 1654.45 1288.84 1662.16 1291.16 1669.5 1294.34 1676.47 1298.38 1683.45 1302.42 1689.14 1307.8 1693.54 1314.53 1697.94 1321.26 1700.15 1330 1700.15 1340.77 1700.15 1357.89 1694.15 1371.47 1682.16 1381.5 1670.17 1391.54 1653.9 1396.55 1633.35 1396.55 1623.57 1396.55 1614.15 1395.27 1605.09 1392.7 1596.04 1390.13 1587.72 1386.46 1580.14 1381.69 1572.55 1376.92 1565.95 1371.11 1560.32 1364.26L1586.01 1338.57C1592.13 1345.66 1599.16 1350.98 1607.11 1354.53 1615.06 1358.08 1624.05 1359.85 1634.09 1359.85 1643.14 1359.85 1649.99 1358.51 1654.64 1355.81 1659.29 1353.12 1661.61 1349.21 1661.61 1344.07 1661.61 1338.69 1659.41 1334.53 1655.01 1331.59 1650.6 1328.66 1644.91 1326.15 1637.94 1324.07 1630.97 1321.99 1623.63 1319.85 1615.92 1317.65 1608.21 1315.44 1600.87 1312.45 1593.9 1308.65 1586.93 1304.86 1581.24 1299.66 1576.83 1293.06 1572.43 1286.45 1570.23 1277.89 1570.23 1267.37 1570.23 1256.11 1572.86 1246.45 1578.12 1238.37 1583.38 1230.3 1590.84 1224.06 1600.51 1219.66 1610.17 1215.25 1621.73 1213.05 1635.19 1213.05ZM1466.34 1213.05C1479.56 1213.05 1491.3 1216.42 1501.58 1223.14 1511.85 1229.87 1519.93 1238.56 1525.8 1249.2 1531.67 1259.84 1534.61 1270.91 1534.61 1282.41L1534.61 1392.88 1494.24 1392.88 1494.24 1291.22C1494.24 1279.48 1490.51 1269.81 1483.04 1262.23 1475.58 1254.64 1465.98 1250.85 1454.23 1250.85 1446.16 1250.85 1439.13 1252.56 1433.13 1255.99 1427.14 1259.42 1422.43 1264.19 1419 1270.3 1415.58 1276.42 1413.86 1283.39 1413.86 1291.22L1413.86 1392.88 1373.49 1392.88 1373.49 1216.72 1413.86 1216.72 1413.86 1236.56 1414.43 1235.86C1419.13 1230.4 1424.69 1225.79 1431.11 1222.04 1441.39 1216.05 1453.13 1213.05 1466.34 1213.05ZM1234.71 1213.05C1248.17 1213.05 1260.09 1215.93 1270.49 1221.68 1276.99 1225.27 1282.65 1229.7 1287.48 1234.97L1288.66 1236.34 1288.66 1216.72 1329.03 1216.72 1329.03 1392.88 1288.66 1392.88 1288.66 1373.57 1287.75 1374.64C1282.94 1379.9 1277.25 1384.33 1270.67 1387.93 1260.15 1393.68 1248.17 1396.55 1234.71 1396.55 1218.81 1396.55 1204.43 1392.51 1191.59 1384.44 1178.74 1376.37 1168.59 1365.42 1161.12 1351.59 1153.66 1337.77 1149.93 1322.29 1149.93 1305.17 1149.93 1287.8 1153.66 1272.2 1161.12 1258.38 1168.59 1244.55 1178.74 1233.54 1191.59 1225.35 1204.43 1217.15 1218.81 1213.05 1234.71 1213.05ZM1091.35 1213.05C1100.16 1213.05 1108.11 1214.64 1115.21 1217.82 1122.3 1221 1128.91 1226.14 1135.03 1233.24L1108.6 1260.39C1105.42 1256.97 1101.87 1254.52 1097.96 1253.05 1094.04 1251.59 1089.52 1250.85 1084.38 1250.85 1073.13 1250.85 1063.83 1254.4 1056.49 1261.5 1049.15 1268.59 1045.48 1279.72 1045.48 1294.89L1045.48 1392.88 1005.11 1392.88 1005.11 1216.72 1045.48 1216.72 1045.48 1235.2 1046.4 1233.79C1056.3 1219.96 1071.29 1213.05 1091.35 1213.05ZM2739.19 1143.32 2779.56 1143.32 2779.56 1216.72 2821.77 1216.72 2821.77 1253.42 2779.56 1253.42 2779.56 1392.88 2739.19 1392.88 2739.19 1253.42 2696.99 1253.42 2696.99 1216.72 2739.19 1216.72ZM764.654 1135.98 974.211 1135.98 974.211 1174.52 890.535 1174.52 890.535 1392.88 848.33 1392.88 848.33 1174.52 764.654 1174.52Z" fill="url(#fill0)" fill-rule="evenodd"/><text fill="#000000" fill-opacity="0" font-family="Arial,Arial_MSFontService,sans-serif" font-size="330.3" direction="ltr" writing-mode="lr-tb" x="764.654" y="1424.99">Transparent</text></g></g></svg>